<?xml version="1.0" encoding="UTF-8" standalone="no"?><!-- Generator: Gravit.io --><svg xmlns="http://www.w3.org/2000/svg" xmlns:xlink="http://www.w3.org/1999/xlink" style="isolation:isolate" viewBox="0 0 1366 768" width="1366pt" height="768pt"><defs><clipPath id="_clipPath_qPMDEQfPRCmtNIiCdgUOfj7jGZx61ujH"><rect width="1366" height="768"/></clipPath></defs><g clip-path="url(#_clipPath_qPMDEQfPRCmtNIiCdgUOfj7jGZx61ujH)"><path d=" M 595.984 246.914 L 602.458 519.116 L 519.656 521.086 L 513.182 248.884 L 595.984 246.914 Z " fill="rgb(255,0,0)"/><path d=" M 798.07 246.914 L 714.943 418.967 L 631.817 246.914 L 577.734 246.914 L 577.734 303.7 L 577.068 303.7 L 681.628 520.114 L 681.628 520.114 L 681.628 520.114 L 748.258 520.114 L 748.258 520.114 L 852.818 303.7 L 852.792 303.7 L 852.792 246.914 L 798.07 246.914 Z " fill="rgb(255,0,0)"/><path d=" M 801.086 255.557 L 722.538 416.724 L 643.991 255.557 L 592.888 255.557 L 592.888 308.75 L 592.258 308.75 L 691.058 511.471 L 691.058 511.471 L 691.058 511.471 L 754.018 511.471 L 754.018 511.471 L 852.818 308.75 L 852.793 308.75 L 852.793 255.557 L 801.086 255.557 Z " fill="rgb(0,0,0)"/><path d=" M 597.412 256.172 L 603.664 519.024 L 531.639 520.737 L 525.387 257.885 L 597.412 256.172 Z " fill="rgb(0,0,0)"/><path d=" M 577.068 379.493 L 577.068 379.493 L 577.068 418.014 L 594.775 418.014 L 594.775 384.724 L 594.775 384.724 L 594.775 379.493 L 594.452 379.493 L 594.452 379.493 C 592.306 362.26 579.716 349.014 564.525 349.014 C 549.335 349.014 536.745 362.26 534.598 379.493 L 534.598 379.493 L 534.275 379.493 L 534.275 384.724 L 534.275 384.724 L 534.275 418.014 L 551.983 418.014 L 551.983 379.493 L 551.983 379.493 L 551.983 378.988 C 552.175 378.116 552.438 377.269 552.774 376.46 C 553.676 374.285 554.996 372.646 556.557 371.584 C 559.102 370.838 561.772 370.44 564.525 370.44 C 567.278 370.44 569.949 370.838 572.494 371.584 C 574.054 372.646 575.375 374.285 576.277 376.46 C 576.613 377.269 576.875 378.116 577.068 378.988 L 577.068 379.493 Z " fill="rgb(255,255,255)"/><path d=" M 612.866 309.152 L 644.329 294.217 L 650.149 306.476 L 618.676 321.39 L 612.866 309.152 Z  M 624.304 326.087 L 629.693 326.564 L 629.693 326.564 Q 629.615 329.351 630.21 332.078 L 630.21 332.078 L 630.21 332.078 Q 630.804 334.806 631.809 336.923 L 631.809 336.923 L 631.809 336.923 Q 632.965 339.358 634.201 340.159 L 634.201 340.159 L 634.201 340.159 Q 635.438 340.96 636.645 340.387 L 636.645 340.387 L 636.645 340.387 Q 637.026 340.206 637.363 339.878 L 637.363 339.878 L 637.363 339.878 Q 637.7 339.549 637.905 338.972 L 637.905 338.972 L 637.905 338.972 Q 638.111 338.394 638.176 337.52 L 638.176 337.52 L 638.176 337.52 Q 638.241 336.646 638.1 335.364 L 638.1 335.364 L 637.592 330.961 L 637.592 330.961 Q 637.06 326.232 638.467 323.048 L 638.467 323.048 L 638.467 323.048 Q 639.874 319.863 643.156 318.305 L 643.156 318.305 L 643.156 318.305 Q 645.273 317.3 647.654 317.26 L 647.654 317.26 L 647.654 317.26 Q 650.034 317.219 652.381 318.31 L 652.381 318.31 L 652.381 318.31 Q 654.728 319.402 656.919 321.721 L 656.919 321.721 L 656.919 321.721 Q 659.11 324.041 660.859 327.725 L 660.859 327.725 L 660.859 327.725 Q 661.723 329.546 662.306 331.319 L 662.306 331.319 L 662.306 331.319 Q 662.888 333.092 663.248 334.725 L 663.248 334.725 L 663.248 334.725 Q 663.607 336.357 663.756 337.791 L 663.756 337.791 L 663.756 337.791 Q 663.905 339.225 663.924 340.358 L 663.924 340.358 L 658.71 340.031 L 658.71 340.031 Q 658.812 339.153 658.772 338.25 L 658.772 338.25 L 658.772 338.25 Q 658.733 337.348 658.588 336.496 L 658.588 336.496 L 658.588 336.496 Q 658.443 335.643 658.207 334.873 L 658.207 334.873 L 658.207 334.873 Q 657.971 334.103 657.69 333.51 L 657.69 333.51 L 657.69 333.51 Q 657.207 332.494 656.581 331.857 L 656.581 331.857 L 656.581 331.857 Q 655.954 331.221 655.274 330.908 L 655.274 330.908 L 655.274 330.908 Q 654.594 330.595 653.928 330.587 L 653.928 330.587 L 653.928 330.587 Q 653.263 330.579 652.733 330.83 L 652.733 330.83 L 652.733 330.83 Q 652.268 331.051 651.939 331.48 L 651.939 331.48 L 651.939 331.48 Q 651.611 331.908 651.454 332.644 L 651.454 332.644 L 651.454 332.644 Q 651.297 333.38 651.302 334.454 L 651.302 334.454 L 651.302 334.454 Q 651.306 335.529 651.484 337.053 L 651.484 337.053 L 651.844 339.996 L 651.844 339.996 Q 652.427 344.778 651.049 348.104 L 651.049 348.104 L 651.049 348.104 Q 649.67 351.431 646.24 353.059 L 646.24 353.059 L 646.24 353.059 Q 643.911 354.165 641.445 354.051 L 641.445 354.051 L 641.445 354.051 Q 638.978 353.938 636.564 352.542 L 636.564 352.542 L 636.564 352.542 Q 634.15 351.145 631.893 348.441 L 631.893 348.441 L 631.893 348.441 Q 629.637 345.738 627.707 341.672 L 627.707 341.672 L 627.707 341.672 Q 626.782 339.724 626.124 337.819 L 626.124 337.819 L 626.124 337.819 Q 625.466 335.913 625.049 333.996 L 625.049 333.996 L 625.049 333.996 Q 624.632 332.08 624.452 330.116 L 624.452 330.116 L 624.452 330.116 Q 624.272 328.152 624.304 326.087 L 624.304 326.087 Z  M 638.798 363.779 L 670.261 348.843 L 676.08 361.102 L 644.607 376.017 L 638.798 363.779 Z  M 648.437 384.084 L 679.9 369.148 L 687.8 385.79 L 687.8 385.79 Q 689.468 389.304 690.127 392.222 L 690.127 392.222 L 690.127 392.222 Q 690.785 395.139 690.534 397.425 L 690.534 397.425 L 690.534 397.425 Q 690.283 399.711 689.17 401.329 L 689.17 401.329 L 689.17 401.329 Q 688.057 402.946 686.173 403.841 L 686.173 403.841 L 686.173 403.841 Q 684.288 404.736 682.129 404.476 L 682.129 404.476 L 682.129 404.476 Q 679.969 404.217 677.808 402.779 L 677.808 402.779 L 677.808 402.779 Q 678.423 406.534 677.355 409.039 L 677.355 409.039 L 677.355 409.039 Q 676.286 411.544 673.619 412.81 L 673.619 412.81 L 673.619 412.81 Q 671.798 413.674 669.687 413.6 L 669.687 413.6 L 669.687 413.6 Q 667.576 413.525 665.434 412.402 L 665.434 412.402 L 665.434 412.402 Q 663.292 411.278 661.252 409.03 L 661.252 409.03 L 661.252 409.03 Q 659.211 406.781 657.543 403.266 L 657.543 403.266 L 648.437 384.084 Z  M 672.921 387.457 L 673.544 388.769 L 673.544 388.769 Q 674.368 390.505 675.259 391.535 L 675.259 391.535 L 675.259 391.535 Q 676.15 392.565 677.059 393.003 L 677.059 393.003 L 677.059 393.003 Q 677.967 393.441 678.854 393.396 L 678.854 393.396 L 678.854 393.396 Q 679.741 393.352 680.545 392.97 L 680.545 392.97 L 680.545 392.97 Q 681.35 392.588 681.945 391.929 L 681.945 391.929 L 681.945 391.929 Q 682.54 391.27 682.765 390.294 L 682.765 390.294 L 682.765 390.294 Q 682.989 389.319 682.765 387.972 L 682.765 387.972 L 682.765 387.972 Q 682.541 386.626 681.717 384.89 L 681.717 384.89 L 681.104 383.598 L 672.921 387.457 Z  M 658.862 394.13 L 659.485 395.443 L 659.485 395.443 Q 660.38 397.328 661.395 398.428 L 661.395 398.428 L 661.395 398.428 Q 662.41 399.529 663.491 400.002 L 663.491 400.002 L 663.491 400.002 Q 664.572 400.474 665.685 400.387 L 665.685 400.387 L 665.685 400.387 Q 666.798 400.3 667.878 399.787 L 667.878 399.787 L 667.878 399.787 Q 668.83 399.335 669.56 398.522 L 669.56 398.522 L 669.56 398.522 Q 670.289 397.708 670.642 396.62 L 670.642 396.62 L 670.642 396.62 Q 670.994 395.532 670.906 394.225 L 670.906 394.225 L 670.906 394.225 Q 670.817 392.918 670.134 391.478 L 670.134 391.478 L 669.088 389.276 L 658.862 394.13 Z  M 666.971 423.127 L 698.434 408.191 L 704.253 420.45 L 677.629 433.063 L 683.338 445.089 L 678.489 447.391 L 666.971 423.127 Z  M 680.871 452.409 L 712.334 437.473 L 724.958 464.066 L 720.11 466.368 L 713.305 452.034 L 704.805 456.043 L 710.011 467.011 L 705.163 469.312 L 699.956 458.345 L 691.529 462.345 L 698.344 476.7 L 693.495 479.002 L 680.871 452.409 Z " fill="rgb(255,255,255)"/></g></svg>