<?xml version="1.0" encoding="UTF-8" standalone="no"?><!-- Generator: Gravit.io --><svg xmlns="http://www.w3.org/2000/svg" xmlns:xlink="http://www.w3.org/1999/xlink" style="isolation:isolate" viewBox="0 0 1280 800" width="1280pt" height="800pt"><defs><clipPath id="_clipPath_iQmZrQdUbaRnJymHhO27meRKgFq0Okig"><rect width="1280" height="800"/></clipPath></defs><g clip-path="url(#_clipPath_iQmZrQdUbaRnJymHhO27meRKgFq0Okig)"><path d=" M 536.5 182.25 L 743.5 182.25 L 743.5 572.25 L 536.5 572.25 L 536.5 182.25 Z  M 596.25 214.75 L 683.75 214.75 L 683.75 539.75 L 596.25 539.75 L 596.25 214.75 Z " fill-rule="evenodd" fill="rgb(66,32,87)"/><path d=" M 536.5 542.5 L 743.5 542.5 L 743.5 602 L 536.5 602 L 536.5 542.5 Z " fill="rgb(66,32,87)"/><path d=" M 652.543 373.229 L 652.543 373.229 L 652.543 411.75 L 670.25 411.75 L 670.25 378.46 L 670.25 378.46 L 670.25 373.229 L 669.927 373.229 L 669.927 373.229 C 667.78 355.996 655.19 342.75 640 342.75 C 624.81 342.75 612.22 355.996 610.073 373.229 L 610.073 373.229 L 609.75 373.229 L 609.75 378.46 L 609.75 378.46 L 609.75 411.75 L 627.457 411.75 L 627.457 373.229 L 627.457 373.229 L 627.457 372.724 C 627.65 371.852 627.913 371.005 628.248 370.196 C 629.151 368.021 630.471 366.382 632.032 365.319 C 634.577 364.573 637.247 364.176 640 364.176 C 642.753 364.176 645.423 364.573 647.968 365.319 C 649.529 366.382 650.849 368.021 651.752 370.196 C 652.087 371.005 652.35 371.852 652.543 372.724 L 652.543 373.229 Z " fill="rgb(66,32,87)"/><path d=" M 574.902 562.8 L 574.902 556.896 L 586.926 556.896 L 586.926 562.8 L 585.486 562.8 L 579.042 584.904 L 567.378 584.904 L 560.934 562.8 L 559.494 562.8 L 559.494 556.896 L 573.318 556.896 L 573.318 562.8 L 571.446 562.8 L 573.93 574.86 L 574.29 574.86 L 576.774 562.8 L 574.902 562.8 L 574.902 562.8 Z  M 601.758 584.904 L 588.078 584.904 L 588.078 579 L 589.878 579 L 589.878 562.8 L 588.078 562.8 L 588.078 556.896 L 601.758 556.896 L 601.758 562.8 L 599.958 562.8 L 599.958 579 L 601.758 579 L 601.758 584.904 L 601.758 584.904 Z  M 614.358 585.408 L 614.358 585.408 Q 610.902 585.408 607.824 584.814 L 607.824 584.814 L 607.824 584.814 Q 604.746 584.22 603.09 583.464 L 603.09 583.464 L 603.09 576.336 L 611.01 576.336 L 611.01 576.336 Q 611.01 577.452 611.514 577.956 L 611.514 577.956 L 611.514 577.956 Q 612.018 578.46 613.35 578.46 L 613.35 578.46 L 613.35 578.46 Q 614.466 578.46 614.952 578.118 L 614.952 578.118 L 614.952 578.118 Q 615.438 577.776 615.438 577.092 L 615.438 577.092 L 615.438 577.092 Q 615.438 576.516 614.97 576.102 L 614.97 576.102 L 614.97 576.102 Q 614.502 575.688 613.35 575.256 L 613.35 575.256 L 610.254 574.176 L 610.254 574.176 Q 606.258 572.664 604.512 570.612 L 604.512 570.612 L 604.512 570.612 Q 602.766 568.56 602.766 565.068 L 602.766 565.068 L 602.766 565.068 Q 602.766 560.82 605.556 558.606 L 605.556 558.606 L 605.556 558.606 Q 608.346 556.392 614.862 556.392 L 614.862 556.392 L 614.862 556.392 Q 617.994 556.392 620.748 557.022 L 620.748 557.022 L 620.748 557.022 Q 623.502 557.652 625.194 558.696 L 625.194 558.696 L 625.194 565.14 L 617.994 565.14 L 617.994 565.14 Q 617.994 563.34 615.762 563.34 L 615.762 563.34 L 615.762 563.34 Q 614.682 563.34 614.232 563.61 L 614.232 563.61 L 614.232 563.61 Q 613.782 563.88 613.782 564.564 L 613.782 564.564 L 613.782 564.564 Q 613.782 565.176 614.304 565.536 L 614.304 565.536 L 614.304 565.536 Q 614.826 565.896 616.014 566.292 L 616.014 566.292 L 619.146 567.372 L 619.146 567.372 Q 622.962 568.668 624.708 570.738 L 624.708 570.738 L 624.708 570.738 Q 626.454 572.808 626.454 576.156 L 626.454 576.156 L 626.454 576.156 Q 626.454 580.728 623.376 583.068 L 623.376 583.068 L 623.376 583.068 Q 620.298 585.408 614.358 585.408 L 614.358 585.408 L 614.358 585.408 Z  M 641.142 584.904 L 627.462 584.904 L 627.462 579 L 629.262 579 L 629.262 562.8 L 627.462 562.8 L 627.462 556.896 L 641.142 556.896 L 641.142 562.8 L 639.342 562.8 L 639.342 579 L 641.142 579 L 641.142 584.904 L 641.142 584.904 Z  M 642.582 584.904 L 642.582 579 L 644.382 579 L 644.382 562.8 L 642.582 562.8 L 642.582 556.896 L 659.106 556.896 L 659.106 556.896 Q 663.606 556.896 666.126 558.732 L 666.126 558.732 L 666.126 558.732 Q 668.646 560.568 668.646 563.988 L 668.646 563.988 L 668.646 563.988 Q 668.646 566.112 667.638 567.57 L 667.638 567.57 L 667.638 567.57 Q 666.63 569.028 665.28 569.766 L 665.28 569.766 L 665.28 569.766 Q 663.93 570.504 662.67 570.756 L 662.67 570.756 L 662.67 571.116 L 662.67 571.116 Q 665.226 571.368 667.278 572.736 L 667.278 572.736 L 667.278 572.736 Q 669.33 574.104 669.33 577.632 L 669.33 577.632 L 669.33 577.632 Q 669.33 581.412 666.486 583.158 L 666.486 583.158 L 666.486 583.158 Q 663.642 584.904 659.106 584.904 L 659.106 584.904 L 642.582 584.904 L 642.582 584.904 Z  M 654.462 568.704 L 656.406 568.704 L 656.406 568.704 Q 657.45 568.704 657.972 568.146 L 657.972 568.146 L 657.972 568.146 Q 658.494 567.588 658.494 566.4 L 658.494 566.4 L 658.494 565.104 L 658.494 565.104 Q 658.494 563.916 657.972 563.358 L 657.972 563.358 L 657.972 563.358 Q 657.45 562.8 656.406 562.8 L 656.406 562.8 L 654.462 562.8 L 654.462 568.704 L 654.462 568.704 Z  M 654.462 579 L 656.658 579 L 656.658 579 Q 657.702 579 658.224 578.442 L 658.224 578.442 L 658.224 578.442 Q 658.746 577.884 658.746 576.696 L 658.746 576.696 L 658.746 575.112 L 658.746 575.112 Q 658.746 573.924 658.224 573.366 L 658.224 573.366 L 658.224 573.366 Q 657.702 572.808 656.658 572.808 L 656.658 572.808 L 654.462 572.808 L 654.462 579 L 654.462 579 Z  M 692.766 584.904 L 670.482 584.904 L 670.482 579 L 672.282 579 L 672.282 562.8 L 670.482 562.8 L 670.482 556.896 L 685.674 556.896 L 685.674 562.8 L 682.362 562.8 L 682.362 579 L 685.602 579 L 685.602 575.688 L 692.766 575.688 L 692.766 584.904 L 692.766 584.904 Z  M 718.29 584.904 L 693.99 584.904 L 693.99 579 L 695.79 579 L 695.79 562.8 L 693.99 562.8 L 693.99 556.896 L 718.29 556.896 L 718.29 567.768 L 710.226 567.768 L 710.226 562.8 L 705.87 562.8 L 705.87 568.488 L 709.038 568.488 L 709.038 572.592 L 705.87 572.592 L 705.87 579 L 710.226 579 L 710.226 573.312 L 718.29 573.312 L 718.29 584.904 L 718.29 584.904 Z " fill="rgb(255,255,255)"/></g></svg>